# xmcd CD database file
# Copyright (C) 1993-1998 Ti Kan
# 
# Track frame offsets:
#     150
#     17325
#     43620
#     62237
#     80242
#     106075
#     131677
#     153525
#     171290
#     191585
# 
# Disc length: 2733 seconds
# 
# Revision: 1
# Processed by: cddbd v1.4b41PL1 Copyright (c) Steve Scherf et al.
# Submitted via: DiscPlay 4.0.4
# 
DISCID=810aab0a
DTITLE=Grandmaster Slice - Electric Slide (Shall We Dance)
DYEAR=1900
DGENRE=
TTITLE0=Slice Is In The House
TTITLE1=Electric Slide (Shall We Dance)
TTITLE2=Easy As 1-2-3
TTITLE3=Thinking Of You
TTITLE4=Girls Move Their Butts
TTITLE5=Slice I Get Nice
TTITLE6=Turn Up The Music
TTITLE7=Get Your Bad Behind On The Floor
TTITLE8=Girl Watcher
TTITLE9=Get Nice (Encore)
EXTD=
EXTT0=
EXTT1=
EXTT2=
EXTT3=
EXTT4=
EXTT5=
EXTT6=
EXTT7=
EXTT8=
EXTT9=
PLAYORDER=
